<svg width="147" height="24" viewBox="0 0 147 24" fill="none" xmlns="http://www.w3.org/2000/svg">
<path d="M8.64504 6.29034C5.99845 7.84572 4.83059 10.9545 5.61888 13.7779C5.63299 13.8284 5.64781 13.879 5.66318 13.9294C5.86305 14.8145 5.10125 15.845 4.08838 16.6505C5.28501 16.1576 6.55605 15.9936 7.23207 16.599C7.26855 16.6369 7.30546 16.6743 7.34273 16.7112C9.42582 18.7737 12.7101 19.2662 15.3567 17.7108C18.0033 16.1554 19.1711 13.0465 18.3828 10.2231C18.3687 10.1725 18.3539 10.1221 18.3386 10.0718C18.1387 9.18663 18.9005 8.15591 19.9135 7.35033C18.7168 7.84329 17.4457 8.0075 16.7697 7.40219C16.7332 7.36427 16.6962 7.32671 16.6589 7.2898C14.5758 5.22732 11.2916 4.73497 8.64504 6.29034Z" fill="#F6F6F6"/>
<path d="M6.91113 3.34009C10.9253 0.981024 15.907 1.72748 19.0664 4.85571C19.1229 4.91165 19.1791 4.96818 19.2344 5.02563C20.2597 5.94374 22.187 5.69519 24.002 4.94751C22.4656 6.16934 21.31 7.73291 21.6133 9.07544C21.6366 9.15175 21.6593 9.22833 21.6807 9.30493C22.8762 13.5872 21.1049 18.3023 17.0908 20.6614C13.0767 23.0204 8.09499 22.274 4.93555 19.1458L4.76758 18.9749C3.74217 18.0572 1.81467 18.3054 0 19.053C1.53618 17.8312 2.69182 16.2685 2.38867 14.926C2.36537 14.8497 2.34268 14.7732 2.32129 14.6965C1.12564 10.4142 2.89708 5.69918 6.91113 3.34009ZM16.6562 7.29028C14.5732 5.22782 11.2892 4.73495 8.64258 6.29028C5.99613 7.84558 4.82817 10.9543 5.61621 13.7776C5.63032 13.8281 5.64577 13.8796 5.66113 13.9299C5.86058 14.8149 5.09861 15.8452 4.08594 16.6506C5.28247 16.1577 6.55343 15.9937 7.22949 16.5989C7.26589 16.6367 7.30267 16.6744 7.33984 16.7112C9.42294 18.7737 12.7079 19.2666 15.3545 17.7112C18.0011 16.1558 19.1682 13.0463 18.3799 10.2229C18.3658 10.1725 18.3513 10.1217 18.3359 10.0715C18.1363 9.1865 18.8984 8.15628 19.9111 7.35083C18.7147 7.8437 17.4437 8.00754 16.7676 7.40259C16.7311 7.3647 16.6935 7.32717 16.6562 7.29028Z" fill="#3972AA"/>
<path fill-rule="evenodd" clip-rule="evenodd" d="M14.9406 9.8741C15.2426 10.2113 15.2418 10.757 14.9388 11.0931L12.6258 13.6581C11.8335 14.6206 11.3335 14.6206 10.5094 13.6581L9.06106 12.0519C8.75803 11.7158 8.7572 11.1701 9.05921 10.8329C9.36122 10.4957 9.8517 10.4948 10.1547 10.8308L11.5676 12.3977L13.8451 9.87204C14.1481 9.53599 14.6386 9.53691 14.9406 9.8741Z" fill="#3972AA"/>
<path d="M35.2316 19.8432C34.2456 19.8432 33.4165 19.7237 32.7442 19.4847C32.0869 19.2456 31.5865 18.8423 31.2428 18.2746C30.9142 17.692 30.7499 16.9002 30.7499 15.8992V10.8348H29.002V8.03369H30.7499V4.87402H33.8871V8.03369H36.4641V10.8348H33.8871V15.4511C33.8871 15.9441 33.9767 16.3325 34.156 16.6163C34.3353 16.9002 34.7386 17.0421 35.3661 17.0421H36.3521V19.8432H35.2316Z" fill="#333E4C"/>
<path d="M37.6341 19.8432V8.03369H40.4577L40.6593 9.44545C40.9581 8.99727 41.2943 8.66114 41.6677 8.43705C42.0412 8.19802 42.4296 8.04116 42.833 7.96646C43.2364 7.87682 43.6472 7.83201 44.0655 7.83201C44.2597 7.83201 44.439 7.83948 44.6033 7.85442C44.7676 7.85442 44.8872 7.85442 44.9619 7.85442V10.8796H44.2224C43.5202 10.8796 42.9077 10.9991 42.3848 11.2382C41.862 11.4772 41.4586 11.8507 41.1747 12.3586C40.9058 12.8666 40.7714 13.5164 40.7714 14.3082V19.8432H37.6341Z" fill="#333E4C"/>
<path d="M51.339 20.0001C49.606 20.0001 48.2689 19.5594 47.3278 18.6779C46.4015 17.7816 45.9384 16.437 45.9384 14.6443V8.03369H49.0757V14.4202C49.0757 14.9581 49.1504 15.4361 49.2997 15.8544C49.4641 16.2578 49.7106 16.579 50.0392 16.818C50.3828 17.057 50.8236 17.1765 51.3614 17.1765C51.944 17.1765 52.3922 17.0496 52.7059 16.7956C53.0196 16.5416 53.2363 16.2055 53.3558 15.7872C53.4753 15.3539 53.535 14.8983 53.535 14.4202V8.03369H56.6499V14.6443C56.6499 16.5117 56.1793 17.8712 55.2381 18.7228C54.3119 19.5743 53.0122 20.0001 51.339 20.0001Z" fill="#333E4C"/>
<path d="M63.2596 20.0001C62.7069 20.0001 62.1392 19.9403 61.5566 19.8208C60.9739 19.7013 60.4361 19.4996 59.9431 19.2158C59.4501 18.917 59.0318 18.5211 58.6882 18.0281C58.3446 17.5201 58.1205 16.8927 58.016 16.1457H61.198C61.2877 16.4146 61.4445 16.6462 61.6686 16.8404C61.9076 17.0346 62.1766 17.1765 62.4753 17.2662C62.7891 17.3558 63.1028 17.4006 63.4165 17.4006C63.6257 17.4006 63.8348 17.3857 64.044 17.3558C64.2531 17.3259 64.4473 17.2662 64.6266 17.1765C64.8059 17.0869 64.9478 16.9749 65.0524 16.8404C65.1569 16.691 65.2092 16.5043 65.2092 16.2802C65.2092 16.0412 65.1345 15.8544 64.9851 15.72C64.8358 15.5855 64.6266 15.4809 64.3577 15.4062C64.0888 15.3166 63.7825 15.2344 63.4389 15.1597C62.8264 15.0253 62.1691 14.8759 61.4669 14.7116C60.7648 14.5472 60.1597 14.3082 59.6518 13.9945C59.4427 13.8451 59.2559 13.6807 59.0916 13.5015C58.9273 13.3222 58.7928 13.1205 58.6882 12.8964C58.5836 12.6723 58.5015 12.4408 58.4417 12.2018C58.382 11.9478 58.3521 11.6789 58.3521 11.395C58.3521 10.7526 58.4865 10.2074 58.7554 9.75918C59.0393 9.29606 59.4128 8.92258 59.8759 8.63873C60.339 8.35488 60.8544 8.1532 61.4221 8.03369C61.9898 7.89923 62.5724 7.83201 63.17 7.83201C63.9767 7.83201 64.7237 7.96646 65.4109 8.23537C66.0981 8.48934 66.6658 8.8927 67.114 9.44545C67.5622 9.98327 67.8386 10.6854 67.9431 11.5519H64.9403C64.8806 11.2232 64.6789 10.9618 64.3353 10.7676C63.9917 10.5584 63.5659 10.4539 63.058 10.4539C62.8787 10.4539 62.6845 10.4688 62.4753 10.4987C62.2811 10.5286 62.1019 10.5808 61.9375 10.6555C61.7732 10.7302 61.6387 10.8348 61.5342 10.9693C61.4296 11.0888 61.3773 11.2531 61.3773 11.4623C61.3773 11.6266 61.4221 11.776 61.5118 11.9104C61.6163 12.0449 61.7582 12.1569 61.9375 12.2466C62.1317 12.3362 62.3633 12.4184 62.6322 12.4931C63.1401 12.6126 63.6481 12.7246 64.156 12.8292C64.6789 12.9188 65.142 13.0159 65.5454 13.1205C66.0384 13.2251 66.4865 13.3969 66.8899 13.6359C67.3082 13.875 67.6443 14.2036 67.8983 14.6219C68.1672 15.0253 68.3017 15.5556 68.3017 16.213C68.3017 16.9599 68.1523 17.5799 67.8535 18.0729C67.5547 18.551 67.1513 18.9319 66.6434 19.2158C66.1504 19.4996 65.6051 19.7013 65.0076 19.8208C64.4249 19.9403 63.8423 20.0001 63.2596 20.0001Z" fill="#333E4C"/>
<path d="M74.8211 19.8432C73.8351 19.8432 73.006 19.7237 72.3337 19.4847C71.6764 19.2456 71.1759 18.8423 70.8323 18.2746C70.5036 17.692 70.3393 16.9002 70.3393 15.8992V10.8348H68.5914V8.03369H70.3393V4.87402H73.4766V8.03369H76.0536V10.8348H73.4766V15.4511C73.4766 15.9441 73.5662 16.3325 73.7455 16.6163C73.9247 16.9002 74.3281 17.0421 74.9556 17.0421H75.9416V19.8432H74.8211Z" fill="#333E4C"/>
<path d="M86.611 19.9776C85.3113 19.9776 84.3626 19.619 83.7651 18.902C83.1675 18.1849 82.8687 17.1914 82.8687 15.9216V10.4538H81.0536V8.03361H82.8687V4.71709H85.6026V8.03361H89.188V10.4538H85.6026V15.4062C85.6026 15.7946 85.6474 16.1457 85.7371 16.4594C85.8267 16.7731 85.991 17.0196 86.2301 17.1989C86.4691 17.3781 86.7978 17.4753 87.2161 17.4902C87.5746 17.4902 87.8809 17.4304 88.1348 17.3109C88.3888 17.1914 88.5979 17.057 88.7623 16.9076L89.681 18.9916C89.3972 19.2306 89.076 19.4248 88.7175 19.5742C88.3739 19.7236 88.0228 19.8282 87.6642 19.888C87.3057 19.9477 86.9546 19.9776 86.611 19.9776Z" fill="#74869C"/>
<path d="M95.9351 20C94.232 20 92.9248 19.5593 92.0135 18.6779C91.1171 17.7965 90.669 16.4519 90.669 14.6443V8.03361H93.4029V14.465C93.4029 15.0924 93.485 15.6377 93.6494 16.1008C93.8286 16.564 94.105 16.9225 94.4785 17.1765C94.8669 17.4155 95.3524 17.535 95.9351 17.535C96.5625 17.535 97.0555 17.408 97.4141 17.1541C97.7875 16.8852 98.049 16.5191 98.1984 16.056C98.3478 15.5929 98.4225 15.0626 98.4225 14.465V8.03361H101.156V14.6443C101.156 16.4967 100.693 17.8562 99.767 18.7227C98.8557 19.5742 97.5784 20 95.9351 20Z" fill="#74869C"/>
<path d="M103.308 19.8431V8.03361H105.863L106.02 9.53501C106.334 9.11671 106.7 8.78805 107.118 8.54902C107.536 8.30999 107.977 8.13819 108.44 8.03361C108.903 7.9141 109.336 7.85434 109.74 7.85434C110.86 7.85434 111.742 8.10084 112.384 8.59384C113.041 9.08683 113.504 9.74416 113.773 10.5658C114.042 11.3875 114.177 12.3063 114.177 13.3221V19.8431H111.443V13.7703C111.443 13.3371 111.413 12.9188 111.353 12.5154C111.293 12.0971 111.174 11.7236 110.995 11.395C110.83 11.0663 110.591 10.8049 110.278 10.6106C109.964 10.4164 109.545 10.3193 109.023 10.3193C108.38 10.3193 107.835 10.4911 107.387 10.8347C106.939 11.1783 106.602 11.6415 106.378 12.2241C106.154 12.7918 106.042 13.4416 106.042 14.1737V19.8431H103.308Z" fill="#74869C"/>
<path d="M116.297 19.8431V8.03361H118.851L119.008 9.53501C119.322 9.11671 119.688 8.78805 120.106 8.54902C120.525 8.30999 120.965 8.13819 121.428 8.03361C121.892 7.9141 122.325 7.85434 122.728 7.85434C123.849 7.85434 124.73 8.10084 125.372 8.59384C126.03 9.08683 126.493 9.74416 126.762 10.5658C127.031 11.3875 127.165 12.3063 127.165 13.3221V19.8431H124.431V13.7703C124.431 13.3371 124.401 12.9188 124.342 12.5154C124.282 12.0971 124.162 11.7236 123.983 11.395C123.819 11.0663 123.58 10.8049 123.266 10.6106C122.952 10.4164 122.534 10.3193 122.011 10.3193C121.369 10.3193 120.823 10.4911 120.375 10.8347C119.927 11.1783 119.591 11.6415 119.367 12.2241C119.143 12.7918 119.031 13.4416 119.031 14.1737V19.8431H116.297Z" fill="#74869C"/>
<path d="M134.574 20C133.349 20 132.303 19.746 131.436 19.2381C130.585 18.7302 129.935 18.028 129.487 17.1317C129.054 16.2204 128.837 15.1671 128.837 13.972C128.837 12.7768 129.061 11.7236 129.509 10.8123C129.972 9.88609 130.63 9.16153 131.481 8.63866C132.348 8.11578 133.386 7.85434 134.596 7.85434C135.492 7.85434 136.277 8.01867 136.949 8.34734C137.621 8.66106 138.182 9.0943 138.63 9.64706C139.093 10.1998 139.436 10.8273 139.661 11.5294C139.885 12.2316 139.989 12.9711 139.974 13.7479C139.959 13.9272 139.944 14.1064 139.929 14.2857C139.915 14.45 139.892 14.6293 139.862 14.8235H131.571C131.616 15.3464 131.75 15.8245 131.974 16.2577C132.213 16.6909 132.542 17.0345 132.96 17.2885C133.394 17.5425 133.931 17.6695 134.574 17.6695C134.947 17.6695 135.306 17.6246 135.649 17.535C135.993 17.4304 136.292 17.281 136.546 17.0868C136.815 16.8926 136.994 16.6461 137.084 16.3473H139.817C139.623 17.1989 139.265 17.8936 138.742 18.4314C138.219 18.9692 137.591 19.3651 136.859 19.619C136.142 19.873 135.38 20 134.574 20ZM131.616 12.7843H137.308C137.308 12.2913 137.196 11.8431 136.971 11.4398C136.747 11.0364 136.426 10.7227 136.008 10.4986C135.605 10.2596 135.112 10.1401 134.529 10.1401C133.901 10.1401 133.379 10.267 132.96 10.521C132.542 10.775 132.221 11.1036 131.997 11.507C131.773 11.9104 131.646 12.3361 131.616 12.7843Z" fill="#74869C"/>
<path d="M141.705 19.8431V4H144.439V19.8431H141.705Z" fill="#74869C"/>
</svg>
